<?xml version="1.0" encoding="UTF-8" standalone="no"?>
<!DOCTYPE svg PUBLIC "-//W3C//DTD SVG 1.1//EN"
 "http://www.w3.org/Graphics/SVG/1.1/DTD/svg11.dtd">
<svg xmlns="http://www.w3.org/2000/svg" id="svg" height="220" width="1203"><g transform="translate(0,15) scale(1)"><defs><pattern id="patternA" width="7" height="7" patternUnits="userSpaceOnUse" patternTransform="rotate(45)"><rect x="0" y="0" width="7" height="7" fill="#FFFFFF"/><rect x="0" y="0" width="3" height="3" fill="#505050"/><rect x="0" y="4" width="3" height="3" fill="#505050"/><rect x="4" y="0" width="3" height="3" fill="#505050"/><rect x="4" y="4" width="3" height="3" fill="#505050"/></pattern></defs><defs><pattern id="patternB" width="8" height="8" patternUnits="userSpaceOnUse" patternTransform="rotate(45)"><rect x="0" y="0" width="8" height="8" fill="#FFFFFF"/><rect x="0" y="0" width="3" height="3" fill="#1f77b4"/><rect x="0" y="5" width="3" height="3" fill="#1f77b4"/><rect x="5" y="0" width="3" height="3" fill="#1f77b4"/><rect x="5" y="5" width="3" height="3" fill="#1f77b4"/></pattern></defs><defs><pattern id="plaid0" width="6" height="6" patternUnits="userSpaceOnUse" patternTransform="rotate(45)"><rect x="0" y="0" width="6" height="6" fill="#FFFFFF"/><rect x="0" y="0" width="2" height="2" fill="#1f77b4"/><rect x="0" y="4" width="2" height="2" fill="#1f77b4"/><rect x="4" y="0" width="2" height="2" fill="#1f77b4"/><rect x="4" y="4" width="2" height="2" fill="#1f77b4"/></pattern></defs><defs><pattern id="plaid1" width="6" height="6" patternUnits="userSpaceOnUse" patternTransform="rotate(45)"><rect x="0" y="0" width="6" height="6" fill="#FFFFFF"/><rect x="0" y="0" width="2" height="2" fill="#ff7f0e"/><rect x="0" y="4" width="2" height="2" fill="#ff7f0e"/><rect x="4" y="0" width="2" height="2" fill="#ff7f0e"/><rect x="4" y="4" width="2" height="2" fill="#ff7f0e"/></pattern></defs><defs><pattern id="plaid2" width="6" height="6" patternUnits="userSpaceOnUse" patternTransform="rotate(45)"><rect x="0" y="0" width="6" height="6" fill="#FFFFFF"/><rect x="0" y="0" width="2" height="2" fill="#2ca02c"/><rect x="0" y="4" width="2" height="2" fill="#2ca02c"/><rect x="4" y="0" width="2" height="2" fill="#2ca02c"/><rect x="4" y="4" width="2" height="2" fill="#2ca02c"/></pattern></defs><defs><pattern id="plaid3" width="6" height="6" patternUnits="userSpaceOnUse" patternTransform="rotate(45)"><rect x="0" y="0" width="6" height="6" fill="#FFFFFF"/><rect x="0" y="0" width="2" height="2" fill="#d62728"/><rect x="0" y="4" width="2" height="2" fill="#d62728"/><rect x="4" y="0" width="2" height="2" fill="#d62728"/><rect x="4" y="4" width="2" height="2" fill="#d62728"/></pattern></defs><defs><pattern id="plaid4" width="6" height="6" patternUnits="userSpaceOnUse" patternTransform="rotate(45)"><rect x="0" y="0" width="6" height="6" fill="#FFFFFF"/><rect x="0" y="0" width="2" height="2" fill="#9467bd"/><rect x="0" y="4" width="2" height="2" fill="#9467bd"/><rect x="4" y="0" width="2" height="2" fill="#9467bd"/><rect x="4" y="4" width="2" height="2" fill="#9467bd"/></pattern></defs><defs><pattern id="plaid5" width="6" height="6" patternUnits="userSpaceOnUse" patternTransform="rotate(45)"><rect x="0" y="0" width="6" height="6" fill="#FFFFFF"/><rect x="0" y="0" width="2" height="2" fill="#8c564b"/><rect x="0" y="4" width="2" height="2" fill="#8c564b"/><rect x="4" y="0" width="2" height="2" fill="#8c564b"/><rect x="4" y="4" width="2" height="2" fill="#8c564b"/></pattern></defs><rect x="0" y="20" width="480" height="36" trackID="0" class="track0" color="#1f77b4" style="fill: rgb(31, 119, 180);"/><rect x="519" y="35" width="202" height="36" trackID="0" class="track0" color="#1f77b4" style="fill: rgb(31, 119, 180);"/><rect x="760" y="50" width="140" height="36" trackID="0" class="track0" color="#1f77b4" style="fill: rgb(31, 119, 180);"/><rect x="939" y="35" width="135" height="36" trackID="0" class="track0" color="#1f77b4" style="fill: rgb(31, 119, 180);"/><rect x="0" y="56" width="480" height="15" trackID="1" class="track1" color="#ff7f0e" style="fill: rgb(255, 127, 14);"/><rect x="519" y="5" width="9" height="15" trackID="1" class="track1" color="#ff7f0e" style="fill: rgb(255, 127, 14);"/><rect x="567" y="20" width="507" height="15" trackID="1" class="track1" color="#ff7f0e" style="fill: rgb(255, 127, 14);"/><rect x="0" y="71" width="624" height="27" trackID="2" class="track2" color="#2ca02c" style="fill: rgb(44, 160, 44);"/><rect x="663" y="96" width="157" height="27" trackID="2" class="track2" color="#2ca02c" style="fill: rgb(44, 160, 44);"/><rect x="859" y="86" width="41" height="27" trackID="2" class="track2" color="#2ca02c" style="fill: rgb(44, 160, 44);"/><rect x="939" y="96" width="18" height="27" trackID="2" class="track2" color="#2ca02c" style="fill: rgb(44, 160, 44);"/><rect x="996" y="71" width="78" height="27" trackID="2" class="track2" color="#2ca02c" style="fill: rgb(44, 160, 44);"/><rect x="40" y="98" width="29" height="10" trackID="3" class="track3" color="#d62728" style="fill: rgb(214, 39, 40);"/><rect x="148" y="98" width="212" height="10" trackID="3" class="track3" color="#d62728" style="fill: rgb(214, 39, 40);"/><rect x="439" y="98" width="89" height="10" trackID="3" class="track3" color="#d62728" style="fill: rgb(214, 39, 40);"/><rect x="567" y="130" width="9" height="10" trackID="3" class="track3" color="#d62728" style="fill: rgb(214, 39, 40);"/><rect x="615" y="105" width="9" height="10" trackID="3" class="track3" color="#d62728" style="fill: rgb(214, 39, 40);"/><rect x="663" y="71" width="58" height="10" trackID="3" class="track3" color="#d62728" style="fill: rgb(214, 39, 40);"/><rect x="760" y="86" width="60" height="10" trackID="3" class="track3" color="#d62728" style="fill: rgb(214, 39, 40);"/><rect x="939" y="148" width="18" height="10" trackID="3" class="track3" color="#d62728" style="fill: rgb(214, 39, 40);"/><rect x="1036" y="98" width="38" height="10" trackID="3" class="track3" color="#d62728" style="fill: rgb(214, 39, 40);"/><rect x="40" y="108" width="29" height="7" trackID="4" class="track4" color="#9467bd" style="fill: rgb(148, 103, 189);"/><rect x="148" y="108" width="18" height="7" trackID="4" class="track4" color="#9467bd" style="fill: rgb(148, 103, 189);"/><rect x="245" y="108" width="18" height="7" trackID="4" class="track4" color="#9467bd" style="fill: rgb(148, 103, 189);"/><rect x="342" y="108" width="18" height="7" trackID="4" class="track4" color="#9467bd" style="fill: rgb(148, 103, 189);"/><rect x="519" y="108" width="9" height="7" trackID="4" class="track4" color="#9467bd" style="fill: rgb(148, 103, 189);"/><rect x="567" y="98" width="57" height="7" trackID="4" class="track4" color="#9467bd" style="fill: rgb(148, 103, 189);"/><rect x="663" y="138" width="18" height="7" trackID="4" class="track4" color="#9467bd" style="fill: rgb(148, 103, 189);"/><rect x="720" y="123" width="100" height="7" trackID="4" class="track4" color="#9467bd" style="fill: rgb(148, 103, 189);"/><rect x="939" y="183" width="18" height="7" trackID="4" class="track4" color="#9467bd" style="fill: rgb(148, 103, 189);"/><rect x="1036" y="108" width="38" height="7" trackID="4" class="track4" color="#9467bd" style="fill: rgb(148, 103, 189);"/><path d="M 479 20 C 499.5 20 499.5 35 520 35 V 71 C 499.5 71 499.5 56 479 56 Z" trackID="0" class="track0" color="#1f77b4" style="fill: rgb(31, 119, 180);"/><path d="M 720 35 C 740.5 35 740.5 50 761 50 V 86 C 740.5 86 740.5 71 720 71 Z" trackID="0" class="track0" color="#1f77b4" style="fill: rgb(31, 119, 180);"/><path d="M 899 50 C 919.5 50 919.5 35 940 35 V 71 C 919.5 71 919.5 86 899 86 Z" trackID="0" class="track0" color="#1f77b4" style="fill: rgb(31, 119, 180);"/><path d="M 479 56 C 499.5 56 499.5 5 520 5 V 20 C 499.5 20 499.5 71 479 71 Z" trackID="1" class="track1" color="#ff7f0e" style="fill: rgb(255, 127, 14);"/><path d="M 527 5 C 547.5 5 547.5 20 568 20 V 35 C 547.5 35 547.5 20 527 20 Z" trackID="1" class="track1" color="#ff7f0e" style="fill: rgb(255, 127, 14);"/><path d="M 623 71 C 643.5 71 643.5 96 664 96 V 123 C 643.5 123 643.5 98 623 98 Z" trackID="2" class="track2" color="#2ca02c" style="fill: rgb(44, 160, 44);"/><path d="M 819 96 C 839.5 96 839.5 86 860 86 V 113 C 839.5 113 839.5 123 819 123 Z" trackID="2" class="track2" color="#2ca02c" style="fill: rgb(44, 160, 44);"/><path d="M 899 86 C 919.5 86 919.5 96 940 96 V 123 C 919.5 123 919.5 113 899 113 Z" trackID="2" class="track2" color="#2ca02c" style="fill: rgb(44, 160, 44);"/><path d="M 956 96 C 976.5 96 976.5 71 997 71 V 98 C 976.5 98 976.5 123 956 123 Z" trackID="2" class="track2" color="#2ca02c" style="fill: rgb(44, 160, 44);"/><path d="M 68 98 C 88.5 98 88.5 113 109 113 V 123 C 88.5 123 88.5 108 68 108 Z" trackID="3" class="track3" color="#d62728" style="fill: rgb(214, 39, 40);"/><path d="M 108 113 C 128.5 113 128.5 98 149 98 V 108 C 128.5 108 128.5 123 108 123 Z" trackID="3" class="track3" color="#d62728" style="fill: rgb(214, 39, 40);"/><path d="M 359 98 C 379.5 98 379.5 123 400 123 V 133 C 379.5 133 379.5 108 359 108 Z" trackID="3" class="track3" color="#d62728" style="fill: rgb(214, 39, 40);"/><path d="M 399 123 C 419.5 123 419.5 98 440 98 V 108 C 419.5 108 419.5 133 399 133 Z" trackID="3" class="track3" color="#d62728" style="fill: rgb(214, 39, 40);"/><path d="M 527 98 C 547.5 98 547.5 130 568 130 V 140 C 547.5 140 547.5 108 527 108 Z" trackID="3" class="track3" color="#d62728" style="fill: rgb(214, 39, 40);"/><path d="M 575 130 C 595.5 130 595.5 105 616 105 V 115 C 595.5 115 595.5 140 575 140 Z" trackID="3" class="track3" color="#d62728" style="fill: rgb(214, 39, 40);"/><path d="M 623 105 C 643.5 105 643.5 71 664 71 V 81 C 643.5 81 643.5 115 623 115 Z" trackID="3" class="track3" color="#d62728" style="fill: rgb(214, 39, 40);"/><path d="M 720 71 C 740.5 71 740.5 86 761 86 V 96 C 740.5 96 740.5 81 720 81 Z" trackID="3" class="track3" color="#d62728" style="fill: rgb(214, 39, 40);"/><path d="M 819 86 C 839.5 86 839.5 138 860 138 V 148 C 839.5 148 839.5 96 819 96 Z" trackID="3" class="track3" color="#d62728" style="fill: rgb(214, 39, 40);"/><path d="M 859 138 C 879.5 138 879.5 113 900 113 V 123 C 879.5 123 879.5 148 859 148 Z" trackID="3" class="track3" color="#d62728" style="fill: rgb(214, 39, 40);"/><path d="M 899 113 C 919.5 113 919.5 148 940 148 V 158 C 919.5 158 919.5 123 899 123 Z" trackID="3" class="track3" color="#d62728" style="fill: rgb(214, 39, 40);"/><path d="M 956 148 C 976.5 148 976.5 123 997 123 V 133 C 976.5 133 976.5 158 956 158 Z" trackID="3" class="track3" color="#d62728" style="fill: rgb(214, 39, 40);"/><path d="M 996 123 C 1016.5 123 1016.5 98 1037 98 V 108 C 1016.5 108 1016.5 133 996 133 Z" trackID="3" class="track3" color="#d62728" style="fill: rgb(214, 39, 40);"/><path d="M 68 108 C 88.5 108 88.5 138 109 138 V 145 C 88.5 145 88.5 115 68 115 Z" trackID="4" class="track4" color="#9467bd" style="fill: rgb(148, 103, 189);"/><path d="M 108 138 C 128.5 138 128.5 108 149 108 V 115 C 128.5 115 128.5 145 108 145 Z" trackID="4" class="track4" color="#9467bd" style="fill: rgb(148, 103, 189);"/><path d="M 165 108 C 185.5 108 185.5 133 206 133 V 140 C 185.5 140 185.5 115 165 115 Z" trackID="4" class="track4" color="#9467bd" style="fill: rgb(148, 103, 189);"/><path d="M 205 133 C 225.5 133 225.5 108 246 108 V 115 C 225.5 115 225.5 140 205 140 Z" trackID="4" class="track4" color="#9467bd" style="fill: rgb(148, 103, 189);"/><path d="M 262 108 C 282.5 108 282.5 133 303 133 V 140 C 282.5 140 282.5 115 262 115 Z" trackID="4" class="track4" color="#9467bd" style="fill: rgb(148, 103, 189);"/><path d="M 302 133 C 322.5 133 322.5 108 343 108 V 115 C 322.5 115 322.5 140 302 140 Z" trackID="4" class="track4" color="#9467bd" style="fill: rgb(148, 103, 189);"/><path d="M 359 108 C 379.5 108 379.5 133 400 133 V 140 C 379.5 140 379.5 115 359 115 Z" trackID="4" class="track4" color="#9467bd" style="fill: rgb(148, 103, 189);"/><path d="M 399 133 C 419.5 133 419.5 108 440 108 V 115 C 419.5 115 419.5 140 399 140 Z" trackID="4" class="track4" color="#9467bd" style="fill: rgb(148, 103, 189);"/><path d="M 439 108 C 459.5 108 459.5 133 480 133 V 140 C 459.5 140 459.5 115 439 115 Z" trackID="4" class="track4" color="#9467bd" style="fill: rgb(148, 103, 189);"/><path d="M 479 133 C 499.5 133 499.5 108 520 108 V 115 C 499.5 115 499.5 140 479 140 Z" trackID="4" class="track4" color="#9467bd" style="fill: rgb(148, 103, 189);"/><path d="M 527 108 C 547.5 108 547.5 98 568 98 V 105 C 547.5 105 547.5 115 527 115 Z" trackID="4" class="track4" color="#9467bd" style="fill: rgb(148, 103, 189);"/><path d="M 623 98 C 643.5 98 643.5 138 664 138 V 145 C 643.5 145 643.5 105 623 105 Z" trackID="4" class="track4" color="#9467bd" style="fill: rgb(148, 103, 189);"/><path d="M 680 138 C 700.5 138 700.5 123 721 123 V 130 C 700.5 130 700.5 145 680 145 Z" trackID="4" class="track4" color="#9467bd" style="fill: rgb(148, 103, 189);"/><path d="M 819 123 C 839.5 123 839.5 148 860 148 V 155 C 839.5 155 839.5 130 819 130 Z" trackID="4" class="track4" color="#9467bd" style="fill: rgb(148, 103, 189);"/><path d="M 859 148 C 879.5 148 879.5 123 900 123 V 130 C 879.5 130 879.5 155 859 155 Z" trackID="4" class="track4" color="#9467bd" style="fill: rgb(148, 103, 189);"/><path d="M 899 123 C 919.5 123 919.5 183 940 183 V 190 C 919.5 190 919.5 130 899 130 Z" trackID="4" class="track4" color="#9467bd" style="fill: rgb(148, 103, 189);"/><path d="M 956 183 C 976.5 183 976.5 133 997 133 V 140 C 976.5 140 976.5 190 956 190 Z" trackID="4" class="track4" color="#9467bd" style="fill: rgb(148, 103, 189);"/><path d="M 996 133 C 1016.5 133 1016.5 108 1037 108 V 115 C 1016.5 115 1016.5 140 996 140 Z" trackID="4" class="track4" color="#9467bd" style="fill: rgb(148, 103, 189);"/><path d="M 479 20 C 499.5 20 499.5 35 520 35 V 71 C 499.5 71 499.5 56 479 56 Z" trackID="0" class="track0" color="#1f77b4" style="fill: rgb(31, 119, 180);"/><path d="M 720 35 C 740.5 35 740.5 50 761 50 V 86 C 740.5 86 740.5 71 720 71 Z" trackID="0" class="track0" color="#1f77b4" style="fill: rgb(31, 119, 180);"/><path d="M 899 50 C 919.5 50 919.5 35 940 35 V 71 C 919.5 71 919.5 86 899 86 Z" trackID="0" class="track0" color="#1f77b4" style="fill: rgb(31, 119, 180);"/><path d="M 479 56 C 499.5 56 499.5 5 520 5 V 20 C 499.5 20 499.5 71 479 71 Z" trackID="1" class="track1" color="#ff7f0e" style="fill: rgb(255, 127, 14);"/><path d="M 527 5 C 547.5 5 547.5 20 568 20 V 35 C 547.5 35 547.5 20 527 20 Z" trackID="1" class="track1" color="#ff7f0e" style="fill: rgb(255, 127, 14);"/><path d="M 623 71 C 643.5 71 643.5 96 664 96 V 123 C 643.5 123 643.5 98 623 98 Z" trackID="2" class="track2" color="#2ca02c" style="fill: rgb(44, 160, 44);"/><path d="M 819 96 C 839.5 96 839.5 86 860 86 V 113 C 839.5 113 839.5 123 819 123 Z" trackID="2" class="track2" color="#2ca02c" style="fill: rgb(44, 160, 44);"/><path d="M 899 86 C 919.5 86 919.5 96 940 96 V 123 C 919.5 123 919.5 113 899 113 Z" trackID="2" class="track2" color="#2ca02c" style="fill: rgb(44, 160, 44);"/><path d="M 956 96 C 976.5 96 976.5 71 997 71 V 98 C 976.5 98 976.5 123 956 123 Z" trackID="2" class="track2" color="#2ca02c" style="fill: rgb(44, 160, 44);"/><path d="M 68 98 C 88.5 98 88.5 113 109 113 V 123 C 88.5 123 88.5 108 68 108 Z" trackID="3" class="track3" color="#d62728" style="fill: rgb(214, 39, 40);"/><path d="M 108 113 C 128.5 113 128.5 98 149 98 V 108 C 128.5 108 128.5 123 108 123 Z" trackID="3" class="track3" color="#d62728" style="fill: rgb(214, 39, 40);"/><path d="M 359 98 C 379.5 98 379.5 123 400 123 V 133 C 379.5 133 379.5 108 359 108 Z" trackID="3" class="track3" color="#d62728" style="fill: rgb(214, 39, 40);"/><path d="M 399 123 C 419.5 123 419.5 98 440 98 V 108 C 419.5 108 419.5 133 399 133 Z" trackID="3" class="track3" color="#d62728" style="fill: rgb(214, 39, 40);"/><path d="M 527 98 C 547.5 98 547.5 130 568 130 V 140 C 547.5 140 547.5 108 527 108 Z" trackID="3" class="track3" color="#d62728" style="fill: rgb(214, 39, 40);"/><path d="M 575 130 C 595.5 130 595.5 105 616 105 V 115 C 595.5 115 595.5 140 575 140 Z" trackID="3" class="track3" color="#d62728" style="fill: rgb(214, 39, 40);"/><path d="M 623 105 C 643.5 105 643.5 71 664 71 V 81 C 643.5 81 643.5 115 623 115 Z" trackID="3" class="track3" color="#d62728" style="fill: rgb(214, 39, 40);"/><path d="M 720 71 C 740.5 71 740.5 86 761 86 V 96 C 740.5 96 740.5 81 720 81 Z" trackID="3" class="track3" color="#d62728" style="fill: rgb(214, 39, 40);"/><path d="M 819 86 C 839.5 86 839.5 138 860 138 V 148 C 839.5 148 839.5 96 819 96 Z" trackID="3" class="track3" color="#d62728" style="fill: rgb(214, 39, 40);"/><path d="M 859 138 C 879.5 138 879.5 113 900 113 V 123 C 879.5 123 879.5 148 859 148 Z" trackID="3" class="track3" color="#d62728" style="fill: rgb(214, 39, 40);"/><path d="M 899 113 C 919.5 113 919.5 148 940 148 V 158 C 919.5 158 919.5 123 899 123 Z" trackID="3" class="track3" color="#d62728" style="fill: rgb(214, 39, 40);"/><path d="M 956 148 C 976.5 148 976.5 123 997 123 V 133 C 976.5 133 976.5 158 956 158 Z" trackID="3" class="track3" color="#d62728" style="fill: rgb(214, 39, 40);"/><path d="M 996 123 C 1016.5 123 1016.5 98 1037 98 V 108 C 1016.5 108 1016.5 133 996 133 Z" trackID="3" class="track3" color="#d62728" style="fill: rgb(214, 39, 40);"/><path d="M 68 108 C 88.5 108 88.5 138 109 138 V 145 C 88.5 145 88.5 115 68 115 Z" trackID="4" class="track4" color="#9467bd" style="fill: rgb(148, 103, 189);"/><path d="M 108 138 C 128.5 138 128.5 108 149 108 V 115 C 128.5 115 128.5 145 108 145 Z" trackID="4" class="track4" color="#9467bd" style="fill: rgb(148, 103, 189);"/><path d="M 165 108 C 185.5 108 185.5 133 206 133 V 140 C 185.5 140 185.5 115 165 115 Z" trackID="4" class="track4" color="#9467bd" style="fill: rgb(148, 103, 189);"/><path d="M 205 133 C 225.5 133 225.5 108 246 108 V 115 C 225.5 115 225.5 140 205 140 Z" trackID="4" class="track4" color="#9467bd" style="fill: rgb(148, 103, 189);"/><path d="M 262 108 C 282.5 108 282.5 133 303 133 V 140 C 282.5 140 282.5 115 262 115 Z" trackID="4" class="track4" color="#9467bd" style="fill: rgb(148, 103, 189);"/><path d="M 302 133 C 322.5 133 322.5 108 343 108 V 115 C 322.5 115 322.5 140 302 140 Z" trackID="4" class="track4" color="#9467bd" style="fill: rgb(148, 103, 189);"/><path d="M 359 108 C 379.5 108 379.5 133 400 133 V 140 C 379.5 140 379.5 115 359 115 Z" trackID="4" class="track4" color="#9467bd" style="fill: rgb(148, 103, 189);"/><path d="M 399 133 C 419.5 133 419.5 108 440 108 V 115 C 419.5 115 419.5 140 399 140 Z" trackID="4" class="track4" color="#9467bd" style="fill: rgb(148, 103, 189);"/><path d="M 439 108 C 459.5 108 459.5 133 480 133 V 140 C 459.5 140 459.5 115 439 115 Z" trackID="4" class="track4" color="#9467bd" style="fill: rgb(148, 103, 189);"/><path d="M 479 133 C 499.5 133 499.5 108 520 108 V 115 C 499.5 115 499.5 140 479 140 Z" trackID="4" class="track4" color="#9467bd" style="fill: rgb(148, 103, 189);"/><path d="M 527 108 C 547.5 108 547.5 98 568 98 V 105 C 547.5 105 547.5 115 527 115 Z" trackID="4" class="track4" color="#9467bd" style="fill: rgb(148, 103, 189);"/><path d="M 623 98 C 643.5 98 643.5 138 664 138 V 145 C 643.5 145 643.5 105 623 105 Z" trackID="4" class="track4" color="#9467bd" style="fill: rgb(148, 103, 189);"/><path d="M 680 138 C 700.5 138 700.5 123 721 123 V 130 C 700.5 130 700.5 145 680 145 Z" trackID="4" class="track4" color="#9467bd" style="fill: rgb(148, 103, 189);"/><path d="M 819 123 C 839.5 123 839.5 148 860 148 V 155 C 839.5 155 839.5 130 819 130 Z" trackID="4" class="track4" color="#9467bd" style="fill: rgb(148, 103, 189);"/><path d="M 859 148 C 879.5 148 879.5 123 900 123 V 130 C 879.5 130 879.5 155 859 155 Z" trackID="4" class="track4" color="#9467bd" style="fill: rgb(148, 103, 189);"/><path d="M 899 123 C 919.5 123 919.5 183 940 183 V 190 C 919.5 190 919.5 130 899 130 Z" trackID="4" class="track4" color="#9467bd" style="fill: rgb(148, 103, 189);"/><path d="M 956 183 C 976.5 183 976.5 133 997 133 V 140 C 976.5 140 976.5 190 956 190 Z" trackID="4" class="track4" color="#9467bd" style="fill: rgb(148, 103, 189);"/><path d="M 996 133 C 1016.5 133 1016.5 108 1037 108 V 115 C 1016.5 115 1016.5 140 996 140 Z" trackID="4" class="track4" color="#9467bd" style="fill: rgb(148, 103, 189);"/><path id="A" d="M 11 20 Q 11 11 20 11 Q 29 11 29 20 L 29 98 Q 29 107 20 107 Q 11 107 11 98 L 11 20" style="fill: rgb(255, 255, 255); fill-opacity: 0.8; stroke: black; stroke-width: 2px;"><title>A</title></path><path id="B" d="M 51 20 Q 51 11 60 11 L 68 11 Q 77 11 77 20 L 77 115 Q 77 124 68 124 L 60 124 Q 51 124 51 115 L 51 20" style="fill: rgb(255, 255, 255); fill-opacity: 0.8; stroke: black; stroke-width: 2px;"><title>B</title></path><path id="C" d="M 99 113 Q 99 104 108 104 Q 117 104 117 113 L 117 123 Q 117 132 108 132 Q 99 132 99 123 L 99 113" style="fill: rgb(255, 255, 255); fill-opacity: 0.8; stroke: black; stroke-width: 2px;"><title>C</title></path><path id="D" d="M 139 20 Q 139 11 148 11 L 165 11 Q 174 11 174 20 L 174 115 Q 174 124 165 124 L 148 124 Q 139 124 139 115 L 139 20" style="fill: rgb(255, 255, 255); fill-opacity: 0.8; stroke: black; stroke-width: 2px;"><title>D</title></path><path id="E" d="M 196 20 Q 196 11 205 11 Q 214 11 214 20 L 214 108 Q 214 117 205 117 Q 196 117 196 108 L 196 20" style="fill: rgb(255, 255, 255); fill-opacity: 0.8; stroke: black; stroke-width: 2px;"><title>E</title></path><path id="F" d="M 196 133 Q 196 124 205 124 Q 214 124 214 133 L 214 140 Q 214 149 205 149 Q 196 149 196 140 L 196 133" style="fill: rgb(255, 255, 255); fill-opacity: 0.8; stroke: black; stroke-width: 2px;"><title>F</title></path><path id="G" d="M 236 20 Q 236 11 245 11 L 262 11 Q 271 11 271 20 L 271 115 Q 271 124 262 124 L 245 124 Q 236 124 236 115 L 236 20" style="fill: rgb(255, 255, 255); fill-opacity: 0.8; stroke: black; stroke-width: 2px;"><title>G</title></path><path id="H" d="M 293 20 Q 293 11 302 11 Q 311 11 311 20 L 311 108 Q 311 117 302 117 Q 293 117 293 108 L 293 20" style="fill: rgb(255, 255, 255); fill-opacity: 0.8; stroke: black; stroke-width: 2px;"><title>H</title></path><path id="I" d="M 293 133 Q 293 124 302 124 Q 311 124 311 133 L 311 140 Q 311 149 302 149 Q 293 149 293 140 L 293 133" style="fill: rgb(255, 255, 255); fill-opacity: 0.8; stroke: black; stroke-width: 2px;"><title>I</title></path><path id="J" d="M 333 20 Q 333 11 342 11 L 359 11 Q 368 11 368 20 L 368 115 Q 368 124 359 124 L 342 124 Q 333 124 333 115 L 333 20" style="fill: rgb(255, 255, 255); fill-opacity: 0.8; stroke: black; stroke-width: 2px;"><title>J</title></path><path id="K" d="M 390 20 Q 390 11 399 11 Q 408 11 408 20 L 408 98 Q 408 107 399 107 Q 390 107 390 98 L 390 20" style="fill: rgb(255, 255, 255); fill-opacity: 0.8; stroke: black; stroke-width: 2px;"><title>K</title></path><path id="L" d="M 390 123 Q 390 114 399 114 Q 408 114 408 123 L 408 140 Q 408 149 399 149 Q 390 149 390 140 L 390 123" style="fill: rgb(255, 255, 255); fill-opacity: 0.8; stroke: black; stroke-width: 2px;"><title>L</title></path><path id="M" d="M 430 20 Q 430 11 439 11 Q 448 11 448 20 L 448 115 Q 448 124 439 124 Q 430 124 430 115 L 430 20" style="fill: rgb(255, 255, 255); fill-opacity: 0.8; stroke: black; stroke-width: 2px;"><title>M</title></path><path id="N" d="M 470 20 Q 470 11 479 11 Q 488 11 488 20 L 488 108 Q 488 117 479 117 Q 470 117 470 108 L 470 20" style="fill: rgb(255, 255, 255); fill-opacity: 0.8; stroke: black; stroke-width: 2px;"><title>N</title></path><path id="O" d="M 470 133 Q 470 124 479 124 Q 488 124 488 133 L 488 140 Q 488 149 479 149 Q 470 149 470 140 L 470 133" style="fill: rgb(255, 255, 255); fill-opacity: 0.8; stroke: black; stroke-width: 2px;"><title>O</title></path><path id="P" d="M 510 35 Q 510 26 519 26 L 527 26 Q 536 26 536 35 L 536 115 Q 536 124 527 124 L 519 124 Q 510 124 510 115 L 510 35" style="fill: rgb(255, 255, 255); fill-opacity: 0.8; stroke: black; stroke-width: 2px;"><title>P</title></path><path id="Q" d="M 558 20 Q 558 11 567 11 Q 576 11 576 20 L 576 105 Q 576 114 567 114 Q 558 114 558 105 L 558 20" style="fill: rgb(255, 255, 255); fill-opacity: 0.8; stroke: black; stroke-width: 2px;"><title>Q</title></path><path id="R" d="M 558 130 Q 558 121 567 121 L 575 121 Q 584 121 584 130 L 584 140 Q 584 149 575 149 L 567 149 Q 558 149 558 140 L 558 130" style="fill: rgb(255, 255, 255); fill-opacity: 0.8; stroke: black; stroke-width: 2px;"><title>R</title></path><path id="S" d="M 606 20 Q 606 11 615 11 L 623 11 Q 632 11 632 20 L 632 115 Q 632 124 623 124 L 615 124 Q 606 124 606 115 L 606 20" style="fill: rgb(255, 255, 255); fill-opacity: 0.8; stroke: black; stroke-width: 2px;"><title>S</title></path><path id="T" d="M 654 138 Q 654 129 663 129 L 680 129 Q 689 129 689 138 L 689 145 Q 689 154 680 154 L 663 154 Q 654 154 654 145 L 654 138" style="fill: rgb(255, 255, 255); fill-opacity: 0.8; stroke: black; stroke-width: 2px;"><title>T</title></path><path id="U" d="M 654 20 Q 654 11 663 11 Q 672 11 672 20 L 672 81 Q 672 90 663 90 Q 654 90 654 81 L 654 20" style="fill: rgb(255, 255, 255); fill-opacity: 0.8; stroke: black; stroke-width: 2px;"><title>U</title></path><path id="V" d="M 711 96 Q 711 87 720 87 Q 729 87 729 96 L 729 130 Q 729 139 720 139 Q 711 139 711 130 L 711 96" style="fill: rgb(255, 255, 255); fill-opacity: 0.8; stroke: black; stroke-width: 2px;"><title>V</title></path><path id="W" d="M 751 50 Q 751 41 760 41 L 819 41 Q 828 41 828 50 L 828 130 Q 828 139 819 139 L 760 139 Q 751 139 751 130 L 751 50" style="fill: rgb(255, 255, 255); fill-opacity: 0.8; stroke: black; stroke-width: 2px;"><title>W</title></path><path id="X" d="M 850 50 Q 850 41 859 41 Q 868 41 868 50 L 868 113 Q 868 122 859 122 Q 850 122 850 113 L 850 50" style="fill: rgb(255, 255, 255); fill-opacity: 0.8; stroke: black; stroke-width: 2px;"><title>X</title></path><path id="Y" d="M 850 138 Q 850 129 859 129 Q 868 129 868 138 L 868 155 Q 868 164 859 164 Q 850 164 850 155 L 850 138" style="fill: rgb(255, 255, 255); fill-opacity: 0.8; stroke: black; stroke-width: 2px;"><title>Y</title></path><path id="Z" d="M 890 50 Q 890 41 899 41 Q 908 41 908 50 L 908 130 Q 908 139 899 139 Q 890 139 890 130 L 890 50" style="fill: rgb(255, 255, 255); fill-opacity: 0.8; stroke: black; stroke-width: 2px;"><title>Z</title></path><path id="AA" d="M 930 20 Q 930 11 939 11 L 956 11 Q 965 11 965 20 L 965 71 Q 965 80 956 80 L 939 80 Q 930 80 930 71 L 930 20" style="fill: rgb(255, 255, 255); fill-opacity: 0.8; stroke: black; stroke-width: 2px;"><title>AA</title></path><path id="AB" d="M 930 96 Q 930 87 939 87 Q 948 87 948 96 L 948 123 Q 948 132 939 132 Q 930 132 930 123 L 930 96" style="fill: rgb(255, 255, 255); fill-opacity: 0.8; stroke: black; stroke-width: 2px;"><title>AB</title></path><path id="AC" d="M 930 148 Q 930 139 939 139 Q 948 139 948 148 L 948 158 Q 948 167 939 167 Q 930 167 930 158 L 930 148" style="fill: rgb(255, 255, 255); fill-opacity: 0.8; stroke: black; stroke-width: 2px;"><title>AC</title></path><path id="AD" d="M 930 183 Q 930 174 939 174 Q 948 174 948 183 L 948 190 Q 948 199 939 199 Q 930 199 930 190 L 930 183" style="fill: rgb(255, 255, 255); fill-opacity: 0.8; stroke: black; stroke-width: 2px;"><title>AD</title></path><path id="AE" d="M 987 20 Q 987 11 996 11 Q 1005 11 1005 20 L 1005 98 Q 1005 107 996 107 Q 987 107 987 98 L 987 20" style="fill: rgb(255, 255, 255); fill-opacity: 0.8; stroke: black; stroke-width: 2px;"><title>AE</title></path><path id="AF" d="M 987 123 Q 987 114 996 114 Q 1005 114 1005 123 L 1005 140 Q 1005 149 996 149 Q 987 149 987 140 L 987 123" style="fill: rgb(255, 255, 255); fill-opacity: 0.8; stroke: black; stroke-width: 2px;"><title>AF</title></path><path id="AG" d="M 1027 20 Q 1027 11 1036 11 L 1053 11 Q 1062 11 1062 20 L 1062 115 Q 1062 124 1053 124 L 1036 124 Q 1027 124 1027 115 L 1027 20" style="fill: rgb(255, 255, 255); fill-opacity: 0.8; stroke: black; stroke-width: 2px;"><title>AG</title></path><text x="16" y="24" font-family="Courier, &quot;Lucida Console&quot;, monospace" font-size="14px" fill="black" style="pointer-events: none;">A</text><text x="56" y="24" font-family="Courier, &quot;Lucida Console&quot;, monospace" font-size="14px" fill="black" style="pointer-events: none;">AA</text><text x="104" y="117" font-family="Courier, &quot;Lucida Console&quot;, monospace" font-size="14px" fill="black" style="pointer-events: none;">T</text><text x="144" y="24" font-family="Courier, &quot;Lucida Console&quot;, monospace" font-size="14px" fill="black" style="pointer-events: none;">GGG</text><text x="201" y="24" font-family="Courier, &quot;Lucida Console&quot;, monospace" font-size="14px" fill="black" style="pointer-events: none;">A</text><text x="201" y="137" font-family="Courier, &quot;Lucida Console&quot;, monospace" font-size="14px" fill="black" style="pointer-events: none;">G</text><text x="241" y="24" font-family="Courier, &quot;Lucida Console&quot;, monospace" font-size="14px" fill="black" style="pointer-events: none;">ATG</text><text x="298" y="24" font-family="Courier, &quot;Lucida Console&quot;, monospace" font-size="14px" fill="black" style="pointer-events: none;">T</text><text x="298" y="137" font-family="Courier, &quot;Lucida Console&quot;, monospace" font-size="14px" fill="black" style="pointer-events: none;">C</text><text x="338" y="24" font-family="Courier, &quot;Lucida Console&quot;, monospace" font-size="14px" fill="black" style="pointer-events: none;">TAA</text><text x="395" y="24" font-family="Courier, &quot;Lucida Console&quot;, monospace" font-size="14px" fill="black" style="pointer-events: none;">C</text><text x="395" y="127" font-family="Courier, &quot;Lucida Console&quot;, monospace" font-size="14px" fill="black" style="pointer-events: none;">G</text><text x="435" y="24" font-family="Courier, &quot;Lucida Console&quot;, monospace" font-size="14px" fill="black" style="pointer-events: none;">C</text><text x="475" y="24" font-family="Courier, &quot;Lucida Console&quot;, monospace" font-size="14px" fill="black" style="pointer-events: none;">A</text><text x="475" y="137" font-family="Courier, &quot;Lucida Console&quot;, monospace" font-size="14px" fill="black" style="pointer-events: none;">C</text><text x="515" y="39" font-family="Courier, &quot;Lucida Console&quot;, monospace" font-size="14px" fill="black" style="pointer-events: none;">AA</text><text x="563" y="24" font-family="Courier, &quot;Lucida Console&quot;, monospace" font-size="14px" fill="black" style="pointer-events: none;">T</text><text x="563" y="134" font-family="Courier, &quot;Lucida Console&quot;, monospace" font-size="14px" fill="black" style="pointer-events: none;">CG</text><text x="611" y="24" font-family="Courier, &quot;Lucida Console&quot;, monospace" font-size="14px" fill="black" style="pointer-events: none;">GA</text><text x="659" y="142" font-family="Courier, &quot;Lucida Console&quot;, monospace" font-size="14px" fill="black" style="pointer-events: none;">GTT</text><text x="659" y="24" font-family="Courier, &quot;Lucida Console&quot;, monospace" font-size="14px" fill="black" style="pointer-events: none;">A</text><text x="716" y="100" font-family="Courier, &quot;Lucida Console&quot;, monospace" font-size="14px" fill="black" style="pointer-events: none;">G</text><text x="756" y="54" font-family="Courier, &quot;Lucida Console&quot;, monospace" font-size="14px" fill="black" style="pointer-events: none;">TTGTCTCT</text><text x="855" y="54" font-family="Courier, &quot;Lucida Console&quot;, monospace" font-size="14px" fill="black" style="pointer-events: none;">T</text><text x="855" y="142" font-family="Courier, &quot;Lucida Console&quot;, monospace" font-size="14px" fill="black" style="pointer-events: none;">C</text><text x="895" y="54" font-family="Courier, &quot;Lucida Console&quot;, monospace" font-size="14px" fill="black" style="pointer-events: none;">A</text><text x="935" y="24" font-family="Courier, &quot;Lucida Console&quot;, monospace" font-size="14px" fill="black" style="pointer-events: none;">CGA</text><text x="935" y="100" font-family="Courier, &quot;Lucida Console&quot;, monospace" font-size="14px" fill="black" style="pointer-events: none;">T</text><text x="935" y="152" font-family="Courier, &quot;Lucida Console&quot;, monospace" font-size="14px" fill="black" style="pointer-events: none;">G</text><text x="935" y="187" font-family="Courier, &quot;Lucida Console&quot;, monospace" font-size="14px" fill="black" style="pointer-events: none;">A</text><text x="992" y="24" font-family="Courier, &quot;Lucida Console&quot;, monospace" font-size="14px" fill="black" style="pointer-events: none;">G</text><text x="992" y="127" font-family="Courier, &quot;Lucida Console&quot;, monospace" font-size="14px" fill="black" style="pointer-events: none;">T</text><text x="1032" y="24" font-family="Courier, &quot;Lucida Console&quot;, monospace" font-size="14px" fill="black" style="pointer-events: none;">GTG</text></g></svg>
