<?xml version="1.0" encoding="UTF-8" standalone="no"?>
<!DOCTYPE svg PUBLIC "-//W3C//DTD SVG 1.1//EN"
 "http://www.w3.org/Graphics/SVG/1.1/DTD/svg11.dtd">
<!-- Generated by graphviz version 2.38.0 (20140413.2041)
 -->
<!-- Title: graphname Pages: 1 -->
<svg width="1227pt" height="156pt"
 viewBox="0.00 0.00 1227.00 156.33" xmlns="http://www.w3.org/2000/svg" xmlns:xlink="http://www.w3.org/1999/xlink">
<g id="graph0" class="graph" transform="scale(1 1) rotate(0) translate(4 152.333)">
<title>graphname</title>
<polygon fill="white" stroke="none" points="-4,4 -4,-152.333 1223,-152.333 1223,4 -4,4"/>
<!-- 1 -->
<g id="node1" class="node"><title>1</title>
<polygon fill="none" stroke="black" stroke-width="2" points="1.5,-78 1.5,-105 110.5,-105 110.5,-78 1.5,-78"/>
<text text-anchor="start" x="7.5" y="-87.8" font-family="Times,serif" font-size="14.00">1:CAAATAAG</text>
</g>
<!-- 2 -->
<g id="node2" class="node"><title>2</title>
<polygon fill="none" stroke="black" stroke-width="2" points="156,-102 156,-129 193,-129 193,-102 156,-102"/>
<text text-anchor="start" x="162" y="-111.8" font-family="Times,serif" font-size="14.00">2:A</text>
</g>
<!-- 1&#45;&gt;2 -->
<g id="edge1" class="edge"><title>1:ne&#45;&gt;2:nw</title>
<path fill="none" stroke="black" stroke-width="2" d="M111.5,-107C111.5,-129.081 155,-153.081 155,-131"/>
</g>
<!-- 3 -->
<g id="node3" class="node"><title>3</title>
<polygon fill="none" stroke="black" stroke-width="2" points="156,-55 156,-82 193,-82 193,-55 156,-55"/>
<text text-anchor="start" x="162" y="-64.8" font-family="Times,serif" font-size="14.00">3:G</text>
</g>
<!-- 1&#45;&gt;3 -->
<g id="edge2" class="edge"><title>1:ne&#45;&gt;3:nw</title>
<path fill="none" stroke="black" stroke-width="2" d="M111.5,-107C111.5,-112.467 155,-89.4674 155,-84"/>
</g>
<!-- 4 -->
<g id="node4" class="node"><title>4</title>
<polygon fill="none" stroke="black" stroke-width="2" points="247,-102 247,-129 282,-129 282,-102 247,-102"/>
<text text-anchor="start" x="253" y="-111.8" font-family="Times,serif" font-size="14.00">4:T</text>
</g>
<!-- 2&#45;&gt;4 -->
<g id="edge3" class="edge"><title>2:ne&#45;&gt;4:nw</title>
<path fill="none" stroke="black" stroke-width="2" d="M194,-131C194,-154.111 246,-154.111 246,-131"/>
</g>
<!-- 5 -->
<g id="node5" class="node"><title>5</title>
<polygon fill="none" stroke="black" stroke-width="2" points="246,-55 246,-82 283,-82 283,-55 246,-55"/>
<text text-anchor="start" x="252" y="-64.8" font-family="Times,serif" font-size="14.00">5:C</text>
</g>
<!-- 2&#45;&gt;5 -->
<g id="edge5" class="edge"><title>2:ne&#45;&gt;5:nw</title>
<path fill="none" stroke="black" stroke-width="2" d="M194,-131C194,-131.963 245,-84.9633 245,-84"/>
</g>
<!-- 3&#45;&gt;4 -->
<g id="edge4" class="edge"><title>3:ne&#45;&gt;4:nw</title>
<path fill="none" stroke="black" stroke-width="2" d="M194,-84C194,-85.947 246,-132.947 246,-131"/>
</g>
<!-- 3&#45;&gt;5 -->
<g id="edge6" class="edge"><title>3:ne&#45;&gt;5:nw</title>
<path fill="none" stroke="black" stroke-width="2" d="M194,-84C194,-95.3333 245,-95.3333 245,-84"/>
</g>
<!-- 6 -->
<g id="node6" class="node"><title>6</title>
<polygon fill="none" stroke="black" stroke-width="2" points="328.5,-78 328.5,-105 383.5,-105 383.5,-78 328.5,-78"/>
<text text-anchor="start" x="334.5" y="-87.8" font-family="Times,serif" font-size="14.00">6:TTG</text>
</g>
<!-- 4&#45;&gt;6 -->
<g id="edge7" class="edge"><title>4:ne&#45;&gt;6:nw</title>
<path fill="none" stroke="black" stroke-width="2" d="M283,-131C283,-153.471 327.5,-129.471 327.5,-107"/>
</g>
<!-- 5&#45;&gt;6 -->
<g id="edge8" class="edge"><title>5:ne&#45;&gt;6:nw</title>
<path fill="none" stroke="black" stroke-width="2" d="M284,-84C284,-89.4674 327.5,-112.467 327.5,-107"/>
</g>
<!-- 7 -->
<g id="node7" class="node"><title>7</title>
<polygon fill="none" stroke="black" stroke-width="2" points="429,-102 429,-129 466,-129 466,-102 429,-102"/>
<text text-anchor="start" x="435" y="-111.8" font-family="Times,serif" font-size="14.00">7:A</text>
</g>
<!-- 6&#45;&gt;7 -->
<g id="edge9" class="edge"><title>6:ne&#45;&gt;7:nw</title>
<path fill="none" stroke="black" stroke-width="2" d="M384.5,-107C384.5,-129.081 428,-153.081 428,-131"/>
</g>
<!-- 8 -->
<g id="node8" class="node"><title>8</title>
<polygon fill="none" stroke="black" stroke-width="2" points="429,-55 429,-82 466,-82 466,-55 429,-55"/>
<text text-anchor="start" x="435" y="-64.8" font-family="Times,serif" font-size="14.00">8:G</text>
</g>
<!-- 6&#45;&gt;8 -->
<g id="edge10" class="edge"><title>6:ne&#45;&gt;8:nw</title>
<path fill="none" stroke="black" stroke-width="2" d="M384.5,-107C384.5,-112.467 428,-89.4674 428,-84"/>
</g>
<!-- 9 -->
<g id="node9" class="node"><title>9</title>
<polygon fill="none" stroke="black" stroke-width="2" points="511,-78 511,-105 725,-105 725,-78 511,-78"/>
<text text-anchor="start" x="517" y="-87.8" font-family="Times,serif" font-size="14.00">9:AAATTTTCTGGAGTTCTAT</text>
</g>
<!-- 7&#45;&gt;9 -->
<g id="edge11" class="edge"><title>7:ne&#45;&gt;9:nw</title>
<path fill="none" stroke="black" stroke-width="2" d="M467,-131C467,-152.886 510,-128.886 510,-107"/>
</g>
<!-- 8&#45;&gt;9 -->
<g id="edge12" class="edge"><title>8:ne&#45;&gt;9:nw</title>
<path fill="none" stroke="black" stroke-width="2" d="M467,-84C467,-89.4183 510,-112.418 510,-107"/>
</g>
<!-- 10 -->
<g id="node10" class="node"><title>10</title>
<polygon fill="none" stroke="black" stroke-width="2" points="769.5,-102 769.5,-129 815.5,-129 815.5,-102 769.5,-102"/>
<text text-anchor="start" x="775.5" y="-111.8" font-family="Times,serif" font-size="14.00">10:A</text>
</g>
<!-- 9&#45;&gt;10 -->
<g id="edge13" class="edge"><title>9:ne&#45;&gt;10:nw</title>
<path fill="none" stroke="black" stroke-width="2" d="M726,-107C726,-128.693 768.5,-152.693 768.5,-131"/>
</g>
<!-- 11 -->
<g id="node11" class="node"><title>11</title>
<polygon fill="none" stroke="black" stroke-width="2" points="770.5,-55 770.5,-82 814.5,-82 814.5,-55 770.5,-55"/>
<text text-anchor="start" x="776.5" y="-64.8" font-family="Times,serif" font-size="14.00">11:T</text>
</g>
<!-- 9&#45;&gt;11 -->
<g id="edge14" class="edge"><title>9:ne&#45;&gt;11:nw</title>
<path fill="none" stroke="black" stroke-width="2" d="M726,-107C726,-112.467 769.5,-89.4674 769.5,-84"/>
</g>
<!-- 12 -->
<g id="node12" class="node"><title>12</title>
<polygon fill="none" stroke="black" stroke-width="2" points="860,-78 860,-105 932,-105 932,-78 860,-78"/>
<text text-anchor="start" x="866" y="-87.8" font-family="Times,serif" font-size="14.00">12:ATAT</text>
</g>
<!-- 10&#45;&gt;12 -->
<g id="edge15" class="edge"><title>10:ne&#45;&gt;12:nw</title>
<path fill="none" stroke="black" stroke-width="2" d="M816.5,-131C816.5,-152.693 859,-128.693 859,-107"/>
</g>
<!-- 11&#45;&gt;12 -->
<g id="edge16" class="edge"><title>11:ne&#45;&gt;12:nw</title>
<path fill="none" stroke="black" stroke-width="2" d="M815.5,-84C815.5,-89.4674 859,-112.467 859,-107"/>
</g>
<!-- 13 -->
<g id="node13" class="node"><title>13</title>
<polygon fill="none" stroke="black" stroke-width="2" points="976.5,-102 976.5,-129 1022.5,-129 1022.5,-102 976.5,-102"/>
<text text-anchor="start" x="982.5" y="-111.8" font-family="Times,serif" font-size="14.00">13:A</text>
</g>
<!-- 12&#45;&gt;13 -->
<g id="edge17" class="edge"><title>12:ne&#45;&gt;13:nw</title>
<path fill="none" stroke="black" stroke-width="2" d="M933,-107C933,-128.693 975.5,-152.693 975.5,-131"/>
</g>
<!-- 14 -->
<g id="node14" class="node"><title>14</title>
<polygon fill="none" stroke="black" stroke-width="2" points="977.5,-55 977.5,-82 1021.5,-82 1021.5,-55 977.5,-55"/>
<text text-anchor="start" x="983.5" y="-64.8" font-family="Times,serif" font-size="14.00">14:T</text>
</g>
<!-- 12&#45;&gt;14 -->
<g id="edge18" class="edge"><title>12:ne&#45;&gt;14:nw</title>
<path fill="none" stroke="black" stroke-width="2" d="M933,-107C933,-112.467 976.5,-89.4674 976.5,-84"/>
</g>
<!-- 15 -->
<g id="node15" class="node"><title>15</title>
<polygon fill="none" stroke="black" stroke-width="2" points="1067.5,-78 1067.5,-105 1218.5,-105 1218.5,-78 1067.5,-78"/>
<text text-anchor="start" x="1073.5" y="-87.8" font-family="Times,serif" font-size="14.00">15:CCAACTCTCTG</text>
</g>
<!-- 13&#45;&gt;15 -->
<g id="edge19" class="edge"><title>13:ne&#45;&gt;15:nw</title>
<path fill="none" stroke="black" stroke-width="2" d="M1023.5,-131C1023.5,-152.886 1066.5,-128.886 1066.5,-107"/>
</g>
<!-- 14&#45;&gt;15 -->
<g id="edge20" class="edge"><title>14:ne&#45;&gt;15:nw</title>
<path fill="none" stroke="black" stroke-width="2" d="M1022.5,-84C1022.5,-89.5165 1066.5,-112.517 1066.5,-107"/>
</g>
<!-- 16 -->
<g id="node16" class="node"><title>16</title>
<text text-anchor="middle" x="55.5" y="-37.3" font-family="Times,serif" font-size="14.00" fill="#666666">🎷 x &#160;1 </text>
</g>
<!-- 16&#45;&gt;1 -->
<!-- 17 -->
<g id="node17" class="node"><title>17</title>
<text text-anchor="middle" x="174" y="-14.3" font-family="Times,serif" font-size="14.00" fill="#666666">🎷 3 </text>
</g>
<!-- 16&#45;&gt;17 -->
<g id="edge22" class="edge"><title>16&#45;&gt;17</title>
<path fill="none" stroke="#666666" d="M90.1966,-34.3474C108.206,-30.7919 130.049,-26.4795 146.778,-23.1769"/>
</g>
<!-- 17&#45;&gt;3 -->
<!-- 18 -->
<g id="node18" class="node"><title>18</title>
<text text-anchor="middle" x="264" y="-14.3" font-family="Times,serif" font-size="14.00" fill="#666666">🎷 5 </text>
</g>
<!-- 17&#45;&gt;18 -->
<g id="edge24" class="edge"><title>17&#45;&gt;18</title>
<path fill="none" stroke="#666666" d="M201.403,-18C212.642,-18 225.715,-18 236.919,-18"/>
</g>
<!-- 18&#45;&gt;5 -->
<!-- 19 -->
<g id="node19" class="node"><title>19</title>
<text text-anchor="middle" x="355.5" y="-37.3" font-family="Times,serif" font-size="14.00" fill="#666666">🎷 6 </text>
</g>
<!-- 18&#45;&gt;19 -->
<g id="edge26" class="edge"><title>18&#45;&gt;19</title>
<path fill="none" stroke="#666666" d="M291.369,-24.7764C303.022,-27.7711 316.688,-31.283 328.32,-34.2721"/>
</g>
<!-- 19&#45;&gt;6 -->
<!-- 20 -->
<g id="node20" class="node"><title>20</title>
<text text-anchor="middle" x="447" y="-14.3" font-family="Times,serif" font-size="14.00" fill="#666666">🎷 8 </text>
</g>
<!-- 19&#45;&gt;20 -->
<g id="edge28" class="edge"><title>19&#45;&gt;20</title>
<path fill="none" stroke="#666666" d="M382.869,-34.2236C394.522,-31.2289 408.188,-27.717 419.82,-24.7279"/>
</g>
<!-- 20&#45;&gt;8 -->
<!-- 21 -->
<g id="node21" class="node"><title>21</title>
<text text-anchor="middle" x="618" y="-37.3" font-family="Times,serif" font-size="14.00" fill="#666666">🎷 9 </text>
</g>
<!-- 20&#45;&gt;21 -->
<g id="edge30" class="edge"><title>20&#45;&gt;21</title>
<path fill="none" stroke="#666666" d="M474.036,-21.5433C505.794,-25.8655 559.163,-33.1287 590.935,-37.4526"/>
</g>
<!-- 21&#45;&gt;9 -->
<!-- 22 -->
<g id="node22" class="node"><title>22</title>
<text text-anchor="middle" x="792.5" y="-14.3" font-family="Times,serif" font-size="14.00" fill="#666666">🎷 11 </text>
</g>
<!-- 21&#45;&gt;22 -->
<g id="edge32" class="edge"><title>21&#45;&gt;22</title>
<path fill="none" stroke="#666666" d="M645.199,-37.5068C676.585,-33.3221 729.031,-26.3292 761.866,-21.9512"/>
</g>
<!-- 22&#45;&gt;11 -->
<!-- 23 -->
<g id="node23" class="node"><title>23</title>
<text text-anchor="middle" x="896" y="-37.3" font-family="Times,serif" font-size="14.00" fill="#666666">🎷 12 </text>
</g>
<!-- 22&#45;&gt;23 -->
<g id="edge34" class="edge"><title>22&#45;&gt;23</title>
<path fill="none" stroke="#666666" d="M823.131,-24.7144C836.355,-27.711 851.908,-31.2352 865.157,-34.2375"/>
</g>
<!-- 23&#45;&gt;12 -->
<!-- 24 -->
<g id="node24" class="node"><title>24</title>
<text text-anchor="middle" x="999.5" y="-14.3" font-family="Times,serif" font-size="14.00" fill="#666666">🎷 14 </text>
</g>
<!-- 23&#45;&gt;24 -->
<g id="edge36" class="edge"><title>23&#45;&gt;24</title>
<path fill="none" stroke="#666666" d="M926.631,-34.2856C939.855,-31.289 955.408,-27.7648 968.657,-24.7625"/>
</g>
<!-- 24&#45;&gt;14 -->
<!-- 25 -->
<g id="node25" class="node"><title>25</title>
<text text-anchor="middle" x="1142.5" y="-37.3" font-family="Times,serif" font-size="14.00" fill="#666666">🎷 15 </text>
</g>
<!-- 24&#45;&gt;25 -->
<g id="edge38" class="edge"><title>24&#45;&gt;25</title>
<path fill="none" stroke="#666666" d="M1030.06,-22.8216C1054.12,-26.747 1087.93,-32.2611 1111.98,-36.1848"/>
</g>
<!-- 25&#45;&gt;15 -->
</g>
</svg>
